<svg width="122" height="40" viewBox="0 0 122 40" fill="none" xmlns="http://www.w3.org/2000/svg">
<path d="M107.68 30.8C106.667 30.8 105.707 30.6667 104.8 30.4C103.92 30.1334 103.107 29.76 102.36 29.28L100.6 39.2H95L100.44 8.40002H105.16L105.84 9.52002L105.76 9.92002C106.693 9.44002 107.653 9.06669 108.64 8.80002C109.627 8.53336 110.627 8.40002 111.64 8.40002C113.187 8.40002 114.587 8.69336 115.84 9.28002C117.093 9.86669 118.133 10.6667 118.96 11.68C119.813 12.6934 120.413 13.88 120.76 15.24C121.107 16.6 121.133 18.0534 120.84 19.6C120.573 21.1467 120.027 22.6 119.2 23.96C118.373 25.32 117.36 26.5067 116.16 27.52C114.987 28.5334 113.667 29.3334 112.2 29.92C110.733 30.5067 109.227 30.8 107.68 30.8ZM104.04 19.6C103.907 20.3734 103.92 21.1067 104.08 21.8C104.267 22.4667 104.573 23.0534 105 23.56C105.427 24.0667 105.947 24.4667 106.56 24.76C107.2 25.0534 107.907 25.2 108.68 25.2C109.453 25.2 110.2 25.0534 110.92 24.76C111.667 24.4667 112.333 24.0667 112.92 23.56C113.507 23.0534 114 22.4667 114.4 21.8C114.827 21.1067 115.107 20.3734 115.24 19.6C115.373 18.8267 115.347 18.1067 115.16 17.44C115 16.7467 114.707 16.1467 114.28 15.64C113.88 15.1334 113.36 14.7334 112.72 14.44C112.107 14.1467 111.413 14 110.64 14C109.867 14 109.107 14.1467 108.36 14.44C107.64 14.7334 106.973 15.1334 106.36 15.64C105.773 16.1467 105.267 16.7467 104.84 17.44C104.44 18.1067 104.173 18.8267 104.04 19.6Z" fill="#32CD32"/>
<path d="M96.7454 19.9205C96.4787 21.4672 95.932 22.9205 95.1054 24.2805C94.2787 25.6405 93.2654 26.8272 92.0654 27.8405C90.892 28.8539 89.572 29.6539 88.1054 30.2405C86.6387 30.8272 85.132 31.1205 83.5854 31.1205C82.0387 31.1205 80.6387 30.8272 79.3854 30.2405C78.132 29.6539 77.0787 28.8539 76.2254 27.8405C75.3987 26.8272 74.812 25.6405 74.4654 24.2805C74.1187 22.9205 74.0787 21.4672 74.3454 19.9205C74.6387 18.3739 75.1987 16.9205 76.0254 15.5605C76.852 14.2005 77.852 13.0139 79.0254 12.0005C80.2254 10.9872 81.5587 10.1872 83.0254 9.60053C84.492 9.01387 85.9987 8.72053 87.5454 8.72053C89.092 8.72053 90.492 9.01387 91.7454 9.60053C92.9987 10.1872 94.0387 10.9872 94.8654 12.0005C95.7187 13.0139 96.3187 14.2005 96.6654 15.5605C97.012 16.9205 97.0387 18.3739 96.7454 19.9205ZM79.9454 19.9205C79.812 20.6939 79.8254 21.4272 79.9854 22.1205C80.172 22.7872 80.4787 23.3739 80.9054 23.8805C81.332 24.3872 81.852 24.7872 82.4654 25.0805C83.1054 25.3739 83.812 25.5205 84.5854 25.5205C85.3587 25.5205 86.1054 25.3739 86.8254 25.0805C87.572 24.7872 88.2387 24.3872 88.8254 23.8805C89.412 23.3739 89.9054 22.7872 90.3054 22.1205C90.732 21.4272 91.012 20.6939 91.1454 19.9205C91.2787 19.1472 91.252 18.4272 91.0654 17.7605C90.9054 17.0672 90.612 16.4672 90.1854 15.9605C89.7854 15.4539 89.2654 15.0539 88.6254 14.7605C88.012 14.4672 87.3187 14.3205 86.5454 14.3205C85.772 14.3205 85.012 14.4672 84.2654 14.7605C83.5454 15.0539 82.8787 15.4539 82.2654 15.9605C81.6787 16.4672 81.172 17.0672 80.7454 17.7605C80.3454 18.4272 80.0787 19.1472 79.9454 19.9205Z" fill="#32CD32"/>
<path d="M79.9069 19.6C79.6403 21.1467 79.0936 22.6 78.2669 23.96C77.4402 25.32 76.4269 26.5067 75.2269 27.52C74.0536 28.5334 72.7336 29.3334 71.2669 29.92C69.8003 30.5067 68.2936 30.8 66.7469 30.8C65.2003 30.8 63.8003 30.5067 62.5469 29.92C61.2936 29.3334 60.2403 28.5334 59.3869 27.52C58.5603 26.5067 57.9736 25.32 57.6269 23.96C57.2803 22.6 57.2403 21.1467 57.5069 19.6C57.8003 18.0534 58.3602 16.6 59.1869 15.24C60.0136 13.88 61.0136 12.6934 62.1869 11.68C63.3869 10.6667 64.7203 9.86669 66.1869 9.28002C67.6536 8.69336 69.1603 8.40002 70.7069 8.40002C72.2536 8.40002 73.6536 8.69336 74.9069 9.28002C76.1603 9.86669 77.2002 10.6667 78.0269 11.68C78.8802 12.6934 79.4803 13.88 79.8269 15.24C80.1736 16.6 80.2003 18.0534 79.9069 19.6ZM63.1069 19.6C62.9736 20.3734 62.9869 21.1067 63.1469 21.8C63.3336 22.4667 63.6403 23.0534 64.0669 23.56C64.4936 24.0667 65.0136 24.4667 65.6269 24.76C66.2669 25.0534 66.9736 25.2 67.7469 25.2C68.5203 25.2 69.2669 25.0534 69.9869 24.76C70.7336 24.4667 71.4002 24.0667 71.9869 23.56C72.5736 23.0534 73.0669 22.4667 73.4669 21.8C73.8936 21.1067 74.1736 20.3734 74.3069 19.6C74.4402 18.8267 74.4136 18.1067 74.2269 17.44C74.0669 16.7467 73.7736 16.1467 73.3469 15.64C72.9469 15.1334 72.4269 14.7334 71.7869 14.44C71.1736 14.1467 70.4803 14 69.7069 14C68.9336 14 68.1736 14.1467 67.4269 14.44C66.7069 14.7334 66.0403 15.1334 65.4269 15.64C64.8403 16.1467 64.3336 16.7467 63.9069 17.44C63.5069 18.1067 63.2403 18.8267 63.1069 19.6Z" fill="#32CD32"/>
<path d="M59.3994 0L53.9594 30.8H48.3594L53.7994 0H59.3994Z" fill="#32CD32"/>
<path d="M45.7443 26.6C45.1309 27.32 44.3843 27.9467 43.5043 28.48C42.6509 29.0134 41.7443 29.4534 40.7843 29.8C39.8243 30.1467 38.8509 30.4 37.8643 30.56C36.9043 30.72 36.0109 30.8 35.1843 30.8C33.6109 30.8 32.1976 30.52 30.9443 29.96C29.6909 29.3734 28.6376 28.5734 27.7843 27.56C26.9576 26.5467 26.3709 25.36 26.0243 24C25.7043 22.64 25.6776 21.1734 25.9443 19.6C26.2109 18.0534 26.7576 16.6 27.5843 15.24C28.4109 13.88 29.4243 12.6934 30.6243 11.68C31.8243 10.6667 33.1576 9.86669 34.6243 9.28002C36.0909 8.69336 37.5976 8.40002 39.1443 8.40002C40.4243 8.40002 41.6109 8.61336 42.7043 9.04002C43.7976 9.44002 44.7576 10.0134 45.5843 10.76C46.4109 11.5067 47.0776 12.4 47.5843 13.44C48.0909 14.4534 48.3976 15.5734 48.5043 16.8C48.5309 17.2534 48.5309 17.72 48.5043 18.2C48.5043 18.6534 48.4509 19.12 48.3443 19.6C48.1843 20.5334 47.9043 21.4667 47.5043 22.4H31.5443C31.8376 23.4667 32.4109 24.2 33.2643 24.6C34.1176 25 35.0909 25.2 36.1843 25.2C36.5576 25.2 36.9709 25.1734 37.4243 25.12C37.9043 25.0667 38.3709 24.9867 38.8243 24.88C39.3043 24.7467 39.7709 24.6 40.2243 24.44C40.6776 24.2534 41.0643 24.0267 41.3843 23.76L45.7443 26.6ZM38.1443 14C37.1043 14 36.0909 14.24 35.1043 14.72C34.1443 15.1734 33.3309 15.8667 32.6643 16.8H42.6243C42.3043 15.8667 41.7309 15.1734 40.9043 14.72C40.1043 14.24 39.1843 14 38.1443 14Z" fill="#32CD32"/>
<path d="M25.36 14C25.04 15.8934 24.28 17.6667 23.08 19.3201C21.9067 20.9734 20.44 22.3201 18.68 23.3601L22.4 30.8001H16.24L13.4 25.1201L12.2 25.2001H6.6L5.6 30.8001H0L4.92 2.80005H16.12C17.6667 2.80005 19.0667 3.09338 20.32 3.68005C21.5733 4.26672 22.6133 5.06672 23.44 6.08005C24.2933 7.09338 24.8933 8.28005 25.24 9.64005C25.5867 11 25.6267 12.4534 25.36 14ZM7.56 19.6H13.16C13.9333 19.6 14.68 19.4534 15.4 19.1601C16.1467 18.8667 16.8133 18.4667 17.4 17.9601C18.0133 17.4534 18.52 16.8667 18.92 16.2001C19.3467 15.5067 19.6267 14.7734 19.76 14C19.8933 13.2267 19.8667 12.5067 19.68 11.84C19.52 11.1467 19.2267 10.5467 18.8 10.04C18.4 9.53338 17.88 9.13338 17.24 8.84005C16.6267 8.54672 15.9333 8.40005 15.16 8.40005H9.56L7.56 19.6Z" fill="#32CD32"/>
</svg>
